# xmcd CD database file
# Copyright (C) 1996 Ti Kan
#
# Track frame offsets:
#	150
#	16635
#	33052
#	56657
#	75637
#	99232
#	121685
#	138420
#	158965
#	179547
#	198420
#	217262
#	233917
#	251082
#	269992
# Disc length: 3940 seconds
#
# Revision: 1
# Processed by: cddbd v1.4PL0 Copyright (c) Steve Scherf et al.
# Submitted via: CDCOPY 4.900
#
DISCID=cf0f620f
DTITLE=Sevendust - Animosity
DYEAR=1900
DGENRE=
TTITLE0=T O A B
TTITLE1=Praise
TTITLE2=Trust
TTITLE3=Crucified
TTITLE4=Xmas Day
TTITLE5=Dead Set
TTITLE6=Shine
TTITLE7=Follow
TTITLE8=Damaged
TTITLE9=Live Again
TTITLE10=Beautiful
TTITLE11=Redefine
TTITLE12=Angels Son
TTITLE13=Angels Son (Live)
TTITLE14=Black (LIve)
EXTD=
EXTT0=
EXTT1=
EXTT2=
EXTT3=
EXTT4=
EXTT5=
EXTT6=
EXTT7=
EXTT8=
EXTT9=
EXTT10=
EXTT11=
EXTT12=
EXTT13=
EXTT14=
PLAYORDER=
